<svg width="21" height="18" viewBox="0 0 21 18" fill="none" xmlns="http://www.w3.org/2000/svg">
<path d="M20.0049 3.99976H21.0049V13.9998H20.0049V16.9998C20.0049 17.5521 19.5572 17.9998 19.0049 17.9998H1.00488C0.452603 17.9998 0.00488281 17.5521 0.00488281 16.9998V0.999756C0.00488281 0.447466 0.452603 -0.000244141 1.00488 -0.000244141H19.0049C19.5572 -0.000244141 20.0049 0.447466 20.0049 0.999756V3.99976ZM18.0049 13.9998H12.0049C9.2435 13.9998 7.00488 11.7612 7.00488 8.99977C7.00488 6.23833 9.2435 3.99976 12.0049 3.99976H18.0049V1.99976H2.00488V15.9998H18.0049V13.9998ZM19.0049 11.9998V5.99976H12.0049C10.348 5.99976 9.0049 7.34287 9.0049 8.99977C9.0049 10.6566 10.348 11.9998 12.0049 11.9998H19.0049ZM12.0049 7.99977H15.0049V9.99977H12.0049V7.99977Z" fill="#7A7987"/>
</svg>
