<svg width="162" height="42" viewBox="0 0 162 42" fill="none" xmlns="http://www.w3.org/2000/svg">
<path d="M0 18.9C0 9.99045 0 5.53568 2.76784 2.76784C5.53568 0 9.99045 0 18.9 0H23.1C32.0095 0 36.4643 0 39.2322 2.76784C42 5.53568 42 9.99045 42 18.9V23.1C42 32.0095 42 36.4643 39.2322 39.2322C36.4643 42 32.0095 42 23.1 42H18.9C9.99045 42 5.53568 42 2.76784 39.2322C0 36.4643 0 32.0095 0 23.1V18.9Z" fill="#0078FF"/>
<path d="M12.2327 7.55957C10.8118 7.55957 9.65991 8.71144 9.65991 10.1323C9.65991 11.5532 10.8118 12.7051 12.2327 12.7051H22.9526C26.1101 12.7051 28.6699 15.2648 28.6699 18.4224C28.6699 21.58 26.1101 24.1397 22.9526 24.1397H20.3798C18.9589 24.1397 17.807 25.2915 17.807 26.7124C17.807 28.1334 18.9589 29.2852 20.3798 29.2852H22.9526C28.952 29.2852 33.8154 24.4218 33.8154 18.4224C33.8154 12.423 28.952 7.55957 22.9526 7.55957H12.2327Z" fill="white"/>
<path d="M14.2337 16.1355C11.7077 16.1355 9.65991 18.1833 9.65991 20.7093V32.2868C9.65991 33.7077 10.8118 34.8596 12.2327 34.8596C13.6536 34.8596 14.8055 33.7077 14.8055 32.2868V23.5679C14.8055 22.3049 15.8293 21.281 17.0924 21.281H23.3814C24.8023 21.281 25.9542 20.1292 25.9542 18.7083C25.9542 17.2874 24.8023 16.1355 23.3814 16.1355H14.2337Z" fill="white"/>
<path d="M55.125 8.50446C55.125 8.21451 55.3601 7.97946 55.65 7.97946H63.8946C66.1346 7.97946 68.0386 8.74106 69.6066 10.2643C71.1522 11.7875 71.925 13.6579 71.925 15.8755C71.925 18.0931 71.1522 19.9635 69.6066 21.4867C68.0386 23.0099 66.1346 23.7715 63.8946 23.7715H60.0768C59.9028 23.7715 59.7618 23.9125 59.7618 24.0865V30.9745C59.7618 31.2644 59.5267 31.4995 59.2368 31.4995H55.65C55.3601 31.4995 55.125 31.2644 55.125 30.9745V8.50446ZM59.7618 19.1221C59.7618 19.296 59.9028 19.4371 60.0768 19.4371H63.8946C64.8802 19.4371 65.6978 19.1011 66.3474 18.4291C66.997 17.7347 67.3218 16.8835 67.3218 15.8755C67.3218 14.8451 66.997 13.9939 66.3474 13.3219C65.6978 12.6499 64.8802 12.3139 63.8946 12.3139H60.0768C59.9028 12.3139 59.7618 12.4549 59.7618 12.6289V19.1221Z" fill="#000015"/>
<path d="M86.3945 16.6819V15.2245C86.3945 14.9345 86.6296 14.6995 86.9195 14.6995H90.2039C90.4939 14.6995 90.7289 14.9345 90.7289 15.2245V30.9745C90.7289 31.2644 90.4939 31.4995 90.2039 31.4995H86.9195C86.6296 31.4995 86.3945 31.2644 86.3945 30.9745V29.5171C85.0953 31.1523 83.2697 31.9699 80.9177 31.9699C78.6777 31.9699 76.7513 31.1187 75.1385 29.4163C73.5481 27.6915 72.7529 25.5859 72.7529 23.0995C72.7529 20.6355 73.5481 18.5411 75.1385 16.8163C76.7513 15.0915 78.6777 14.2291 80.9177 14.2291C83.2697 14.2291 85.0953 15.0467 86.3945 16.6819ZM78.3977 26.5267C79.2713 27.4003 80.3801 27.8371 81.7241 27.8371C83.0681 27.8371 84.1769 27.4003 85.0505 26.5267C85.9465 25.6307 86.3945 24.4883 86.3945 23.0995C86.3945 21.7107 85.9465 20.5795 85.0505 19.7059C84.1769 18.8099 83.0681 18.3619 81.7241 18.3619C80.3801 18.3619 79.2713 18.8099 78.3977 19.7059C77.5241 20.5795 77.0873 21.7107 77.0873 23.0995C77.0873 24.4883 77.5241 25.6307 78.3977 26.5267Z" fill="#000015"/>
<path d="M101.883 25.9891L105.494 15.0598C105.565 14.8447 105.766 14.6995 105.992 14.6995H109.5C109.864 14.6995 110.118 15.0616 109.993 15.404L104.135 31.4995C103.261 33.9187 102.096 35.6659 100.64 36.7411C99.3187 37.7528 97.6929 38.2506 95.7625 38.2346C95.4832 38.2323 95.2641 38.0004 95.2641 37.7211V34.7229C95.2641 34.4289 95.5059 34.195 95.7994 34.1773C96.6969 34.1234 97.4369 33.8804 98.0193 33.4483C98.6902 32.9505 99.2252 32.16 99.6243 31.0768C99.6514 31.0031 99.6487 30.9217 99.6181 30.8494L93.0868 15.4292C92.9402 15.083 93.1943 14.6995 93.5702 14.6995H97.1555C97.3724 14.6995 97.5669 14.8328 97.6452 15.035L101.883 25.9891Z" fill="#000015"/>
<path d="M122.447 14.6995C122.737 14.6995 122.972 14.9345 122.972 15.2245V18.3409C122.972 18.6308 122.737 18.8659 122.447 18.8659H119.49C119.316 18.8659 119.175 19.0069 119.175 19.1809V25.8547C119.175 26.4371 119.321 26.8627 119.612 27.1315C119.903 27.4003 120.329 27.5571 120.889 27.6019C121.319 27.6191 121.829 27.6165 122.418 27.594C122.719 27.5825 122.972 27.8213 122.972 28.1224V31.0312C122.972 31.298 122.771 31.5231 122.506 31.5484C119.815 31.8048 117.876 31.5197 116.689 30.6931C115.457 29.7971 114.841 28.1843 114.841 25.8547V19.1809C114.841 19.0069 114.7 18.8659 114.526 18.8659H112.443C112.153 18.8659 111.918 18.6308 111.918 18.3409V15.2245C111.918 14.9345 112.153 14.6995 112.443 14.6995H114.526C114.7 14.6995 114.841 14.5584 114.841 14.3845V11.0245C114.841 10.7346 115.076 10.4995 115.366 10.4995H118.65C118.94 10.4995 119.175 10.7346 119.175 11.0245V14.3845C119.175 14.5584 119.316 14.6995 119.49 14.6995H122.447Z" fill="#000015"/>
<path d="M130.1 14.6995C130.39 14.6995 130.625 14.9345 130.625 15.2245V17.5891C131.006 16.5363 131.655 15.7411 132.574 15.2035C133.354 14.7274 134.232 14.6965 135.207 14.698C135.497 14.6984 135.732 14.9345 135.732 15.2245V18.9369C135.732 19.2549 135.452 19.4979 135.135 19.4659C134.051 19.3564 133.062 19.401 132.171 20.0083C131.14 20.7027 130.625 21.8563 130.625 23.4691V30.9745C130.625 31.2644 130.39 31.4995 130.1 31.4995H126.816C126.526 31.4995 126.291 31.2644 126.291 30.9745V15.2245C126.291 14.9345 126.526 14.6995 126.816 14.6995H130.1Z" fill="#000015"/>
<path d="M140.418 12.6835C139.701 12.6835 139.074 12.4259 138.536 11.9107C138.021 11.3731 137.763 10.7459 137.763 10.0291C137.763 9.31227 138.021 8.68507 138.536 8.14746C139.074 7.60986 139.701 7.34106 140.418 7.34106C141.157 7.34106 141.784 7.60986 142.299 8.14746C142.837 8.68507 143.106 9.31227 143.106 10.0291C143.106 10.7459 142.837 11.3731 142.299 11.9107C141.784 12.4259 141.157 12.6835 140.418 12.6835ZM142.602 30.9745C142.602 31.2644 142.366 31.4995 142.077 31.4995H138.792C138.502 31.4995 138.267 31.2644 138.267 30.9745V15.2245C138.267 14.9345 138.502 14.6995 138.792 14.6995H142.077C142.366 14.6995 142.602 14.9345 142.602 15.2245V30.9745Z" fill="#000015"/>
<path d="M156.041 22.7146C155.962 22.8242 155.962 22.9716 156.041 23.0814L161.465 30.6692C161.713 31.0166 161.465 31.4995 161.038 31.4995H157.323C157.153 31.4995 156.993 31.4171 156.895 31.2786L153.679 26.752C153.553 26.5757 153.292 26.5752 153.166 26.7509L149.918 31.2804C149.819 31.4179 149.66 31.4995 149.491 31.4995H145.777C145.35 31.4995 145.101 31.0157 145.351 30.6684L150.772 23.1147C150.85 23.0051 150.85 22.8577 150.772 22.7479L145.616 15.5296C145.368 15.1821 145.616 14.6995 146.043 14.6995H149.76C149.929 14.6995 150.088 14.7811 150.187 14.9187L153.167 19.0796C153.293 19.255 153.554 19.255 153.679 19.0796L156.66 14.9187C156.758 14.7811 156.917 14.6995 157.086 14.6995H160.767C161.194 14.6995 161.443 15.1831 161.194 15.5304L156.041 22.7146Z" fill="#000015"/>
</svg>
