<svg width="22" height="19" viewBox="0 0 22 19" fill="none" xmlns="http://www.w3.org/2000/svg">
<path d="M11.0003 0.5C16.3924 0.5 20.8784 4.37976 21.8189 9.5C20.8784 14.6202 16.3924 18.5 11.0003 18.5C5.60812 18.5 1.12215 14.6202 0.181641 9.5C1.12215 4.37976 5.60812 0.5 11.0003 0.5ZM11.0003 16.5C15.2359 16.5 18.8603 13.552 19.7777 9.5C18.8603 5.44803 15.2359 2.5 11.0003 2.5C6.7646 2.5 3.14022 5.44803 2.22278 9.5C3.14022 13.552 6.7646 16.5 11.0003 16.5ZM11.0003 14C8.51498 14 6.50026 11.9853 6.50026 9.5C6.50026 7.01472 8.51498 5 11.0003 5C13.4855 5 15.5003 7.01472 15.5003 9.5C15.5003 11.9853 13.4855 14 11.0003 14ZM11.0003 12C12.381 12 13.5003 10.8807 13.5003 9.5C13.5003 8.1193 12.381 7 11.0003 7C9.6196 7 8.50026 8.1193 8.50026 9.5C8.50026 10.8807 9.6196 12 11.0003 12Z" fill="#7A7987"/>
</svg>
